# xmcd
#
# Track frame offsets:
#	150
#	14755
#	27737
#	40915
#	54035
#	66005
#	78220
#	90902
#	102192
#	115062
#	129675
#	143172
#	158775
#	171022
#	184977
#	196480
#	208230
#	219785
#	233312
#	248052
#	259285
#	270797
#
# Disc length: 3773 seconds
#
# Revision: 0
# Processed by: cddbd v1.4PL0 Copyright (c) Steve Scherf et al.
# Submitted via: EasyCDDAExtractor 4.5.0.2
#
DISCID=250ebb16
DTITLE=Bo Diddley - Bo's Blues
DYEAR=1993
DGENRE=Blues
TTITLE0=Down Home Special
TTITLE1=You Don't Love Me 
TTITLE2=Blues Blues
TTITLE3=500% More Man
TTITLE4=Live My Life
TTITLE5=She's Fine, She's Mine
TTITLE6=Heart-O-Matic Love
TTITLE7=Bring It to Jerome
TTITLE8=Pretty Thing
TTITLE9=You Can't Judge a Book by Its Cover
TTITLE10=The Clock Strikes Twelve
TTITLE11=Cops and Robbers
TTITLE12=Run Diddley Daddy
TTITLE13=Before You Accuse Me
TTITLE14=Diddy Wah Diddy
TTITLE15=Bo's Blues
TTITLE16=Little Girl
TTITLE17=I'm a Man
TTITLE18=I'm Bad
TTITLE19=Who Do You Love?
TTITLE20=I'm Looking for a Woman
TTITLE21=Two Files
EXTD=
EXTT0=
EXTT1=
EXTT2=
EXTT3=
EXTT4=
EXTT5=
EXTT6=
EXTT7=
EXTT8=
EXTT9=
EXTT10=
EXTT11=
EXTT12=
EXTT13=
EXTT14=
EXTT15=
EXTT16=
EXTT17=
EXTT18=
EXTT19=
EXTT20=
EXTT21=
PLAYORDER=
